<?xml version="1.0" standalone="no"?>
<!DOCTYPE svg PUBLIC "-//W3C//DTD SVG 20010904//EN"
 "http://www.w3.org/TR/2001/REC-SVG-20010904/DTD/svg10.dtd">
<svg version="1.0" xmlns="http://www.w3.org/2000/svg"
 width="190.000000pt" height="190.000000pt" viewBox="0 0 190.000000 190.000000"
 preserveAspectRatio="xMidYMid meet">
<metadata>
Created by potrace 1.14, written by Peter Selinger 2001-2017
</metadata>
<g transform="translate(0.000000,190.000000) scale(0.100000,-0.100000)"
fill="#000000" stroke="none">
<path d="M669 1790 c-37 -20 -129 -105 -129 -120 0 -4 -26 -20 -57 -35 -119
-55 -172 -144 -160 -264 6 -57 47 -203 66 -239 8 -15 7 -28 -5 -51 -42 -83 53
-204 160 -204 30 0 51 -7 78 -28 20 -16 57 -39 83 -50 66 -29 58 -50 -28 -71
-79 -19 -102 -36 -128 -96 -22 -50 -20 -62 23 -180 22 -58 35 -81 45 -78 7 3
13 1 13 -5 0 -17 -20 -202 -25 -235 l-5 -32 87 -16 c167 -31 355 -16 454 35
33 16 40 24 36 42 -3 12 -9 52 -12 88 l-7 66 46 17 c50 19 63 44 52 94 -3 15
-8 37 -11 48 -3 12 2 27 10 34 23 19 19 29 -40 110 -84 115 -109 140 -142 141
-27 0 -27 1 -5 11 12 6 22 18 22 26 0 8 24 38 53 66 35 33 59 68 71 101 10 28
29 61 42 75 30 33 44 72 44 126 0 44 -13 83 -33 95 -5 4 -11 44 -13 90 -8 174
-34 252 -105 313 -28 24 -37 36 -26 36 39 0 12 19 -60 43 -158 51 -300 45
-394 -19 -27 -18 -49 -29 -49 -25 0 10 82 91 92 91 4 0 8 5 8 10 0 14 -9 12
-51 -10z m473 -537 c12 -11 18 -30 18 -59 0 -54 -33 -84 -92 -84 -42 0 -46 5
-52 65 -3 32 2 45 22 68 30 31 75 36 104 10z m-345 -72 c24 -20 43 -60 43 -91
0 -15 -13 -23 -55 -35 -30 -9 -64 -13 -75 -10 -57 18 -78 90 -38 132 27 29 92
31 125 4z"/>
<path d="M1057 1239 c-15 -9 -16 -13 -5 -27 11 -13 11 -15 -4 -9 -14 5 -18 1
-18 -16 0 -48 54 -81 84 -52 24 25 21 81 -6 99 -26 19 -27 19 -51 5z"/>
<path d="M700 1165 c-8 -10 -9 -15 -1 -15 6 0 11 -5 11 -11 0 -6 -7 -9 -15 -5
-25 9 -20 -51 5 -64 57 -31 115 20 88 77 -16 32 -67 43 -88 18z"/>
</g>
</svg>
